<svg width="12" height="12" viewBox="0 0 12 12" fill="none" xmlns="http://www.w3.org/2000/svg">
<path d="M10.2411 1.75696C9.69035 1.20618 9.04882 0.773868 8.33419 0.471379C7.59435 0.158807 6.80914 0 5.99872 0C5.18956 0.00126037 4.40435 0.158807 3.66451 0.472639C2.94988 0.775129 2.30835 1.20744 1.75757 1.75822C1.20679 2.309 0.774479 2.95053 0.471989 3.66516C0.159417 4.405 0.000610352 5.19021 0.000610352 6.00063C0.000610352 6.8098 0.159417 7.59626 0.471989 8.33611C0.774479 9.05073 1.20679 9.69227 1.75757 10.243C2.30835 10.7938 2.94988 11.2261 3.66451 11.5286C4.40435 11.8412 5.18956 12 5.99998 12C6.80914 12 7.59562 11.8412 8.33545 11.5286C9.05008 11.2261 9.69162 10.7938 10.2424 10.243C10.7932 9.69227 11.2255 9.05073 11.528 8.33611C11.8406 7.59626 11.9993 6.81106 11.9993 6.00063C11.9993 5.19147 11.8405 4.405 11.528 3.66516C11.2242 2.94927 10.7919 2.309 10.2411 1.75696ZM2.6789 1.3549C2.7331 1.31331 2.78603 1.26919 2.84149 1.23012C3.13263 1.02594 3.45529 0.860834 3.78299 0.723453C4.48123 0.431047 5.23998 0.277282 5.99872 0.277282C6.50413 0.277282 7.02214 0.345342 7.50989 0.478941C7.31706 0.557084 7.08137 0.705808 6.68562 1.04359C6.35665 1.0083 6.02393 1.00704 5.68993 1.03855C5.25383 1.08014 4.81523 1.17719 4.3867 1.32843C3.99977 1.46455 3.6935 1.61958 3.4868 1.73805C3.17045 1.62462 2.76208 1.49102 2.56043 1.42548C2.59193 1.43556 2.65747 1.37128 2.6789 1.3549ZM8.14387 2.85474L7.11793 5.65529L4.65642 6.12793L2.62218 4.02689C2.75956 3.07405 3.41244 2.2296 3.41244 2.2296C3.41622 2.22708 3.84222 1.91955 4.52534 1.68134C4.92364 1.54143 5.32946 1.45195 5.73404 1.41414C6.06426 1.38389 6.39322 1.38893 6.71839 1.428L8.14387 2.85474ZM0.495936 5.80023C0.432918 6.20733 0.419054 6.62956 0.451823 7.0543C0.402669 6.95601 0.363597 6.87283 0.334609 6.80602C0.296798 6.5426 0.277892 6.27287 0.277892 5.99812C0.277892 5.15367 0.460646 4.35082 0.789603 3.62862C0.753052 4.00673 0.770698 4.39871 0.797165 4.69616C0.656004 5.05031 0.555174 5.4196 0.495936 5.80023ZM0.993783 7.98195C0.935806 7.76895 0.867746 7.45889 0.833716 7.08708C0.795905 6.66737 0.807248 6.2502 0.870267 5.85065C0.918161 5.54438 0.995044 5.24694 1.10091 4.96082C1.51558 4.61044 2.0651 4.405 2.36885 4.31047L4.36528 6.37244L4.15606 8.63229L2.205 9.2839C1.70841 8.91839 1.30257 8.4344 0.993783 7.98195ZM6.92257 11.2539C6.48774 11.5387 5.3887 11.6068 4.94253 11.6231C4.45098 11.5311 3.9733 11.3736 3.52334 11.1568C3.1301 10.9677 2.75703 10.7333 2.41673 10.4586C2.42303 10.4472 2.36379 9.84601 2.36632 9.62673L4.33754 8.96881L6.61251 9.95316L6.92633 11.2501C6.92383 11.2526 6.92257 11.2539 6.92257 11.2539ZM10.7024 9.25869C10.3634 9.74772 9.95755 10.2027 9.46978 10.5481C9.01227 10.8707 8.39974 10.9816 7.85525 11.0711C7.81366 11.0774 7.29312 11.1631 7.28934 11.1455L6.97552 9.84729L8.57744 8.17981L10.6986 7.98446C10.7314 8.32225 10.7743 8.81504 10.7995 9.11628C10.7667 9.16416 10.7352 9.21206 10.7024 9.25869ZM10.7352 7.56223C10.7276 7.57483 10.7201 7.5887 10.7125 7.60384L8.60013 7.79791L7.46327 5.80905L8.49174 3.00221L9.94368 3.09421C10.2525 3.35259 10.526 3.63995 10.7579 3.95001C11.0478 4.33946 11.2734 4.76673 11.4272 5.2192C11.2658 6.62075 10.894 7.31897 10.7352 7.56223ZM11.4927 4.40878C11.3679 4.16805 11.2217 3.93614 11.0566 3.71558C10.7957 3.36645 10.4856 3.04506 10.134 2.75895C10.0697 2.44008 9.89327 1.93845 9.41937 1.41162C9.42819 1.41792 9.43701 1.42548 9.44585 1.43178C9.47484 1.45321 9.50257 1.4759 9.53155 1.49732C9.85799 1.75444 10.1554 2.04558 10.4189 2.36572C10.9079 2.96187 11.2772 3.65382 11.494 4.39618C11.4927 4.40122 11.4927 4.405 11.4927 4.40878Z" fill="black"/>
</svg>
