<svg width="9" height="9" viewBox="0 0 9 9" fill="none" xmlns="http://www.w3.org/2000/svg">
<circle cx="4.5" cy="4.5" r="4.25" transform="rotate(-180 4.5 4.5)" fill="#04D800" stroke="white" stroke-width="0.5"/>
<path d="M6.69501 4.65147L4.82007 5.93704C4.79385 5.96704 4.76043 5.98747 4.72404 5.99575C4.68765 6.00403 4.64993 5.99979 4.61565 5.98356C4.58137 5.96733 4.55208 5.93984 4.53148 5.90457C4.51088 5.86931 4.4999 5.82785 4.49993 5.78545L4.49993 5.14266L2.62499 5.14266C2.52553 5.14266 2.43015 5.09751 2.35983 5.01715C2.28951 4.93679 2.25 4.82779 2.25 4.71414L2.25 4.28562C2.25 4.17196 2.28951 4.06297 2.35983 3.9826C2.43016 3.90224 2.52553 3.85709 2.62499 3.85709L4.49993 3.85709L4.49993 3.21431C4.4999 3.17191 4.51088 3.13045 4.53148 3.09518C4.55208 3.05992 4.58137 3.03243 4.61565 3.0162C4.64993 2.99997 4.68765 2.99572 4.72404 3.004C4.76043 3.01229 4.79385 3.03272 4.82007 3.06272L6.69501 4.34829C6.71244 4.36819 6.72627 4.39182 6.73571 4.41783C6.74514 4.44384 6.75 4.47172 6.75 4.49988C6.75 4.52804 6.74514 4.55592 6.73571 4.58193C6.72627 4.60794 6.71244 4.63157 6.69501 4.65147Z" fill="white"/>
</svg>
