<svg width="303" height="303" viewBox="0 0 303 303" fill="none" xmlns="http://www.w3.org/2000/svg">
<circle cx="151.5" cy="151.5" r="144" fill="#F2F0EF" stroke="#26437E" stroke-width="15"/>
<path d="M208.545 94.4261C201.201 87.0823 192.647 81.3182 183.119 77.2851C173.254 73.1174 162.785 71 151.979 71C141.19 71.0168 130.721 73.1174 120.856 77.3019C111.328 81.335 102.774 87.0991 95.4304 94.4429C88.0866 101.787 82.3225 110.34 78.2893 119.869C74.1217 129.733 72.0043 140.203 72.0043 151.008C72.0043 161.797 74.1217 172.283 78.2893 182.148C82.3225 191.676 88.0866 200.23 95.4304 207.574C102.774 214.918 111.328 220.682 120.856 224.715C130.721 228.883 141.19 231 151.996 231C162.785 231 173.271 228.883 183.135 224.715C192.664 220.682 201.218 214.918 208.562 207.574C215.905 200.23 221.669 191.676 225.703 182.148C229.87 172.283 231.987 161.814 231.987 151.008C231.987 140.22 229.87 129.733 225.703 119.869C221.652 110.324 215.888 101.787 208.545 94.4261ZM107.715 89.0653C108.437 88.5108 109.143 87.9226 109.883 87.4016C113.765 84.6792 118.067 82.4778 122.436 80.646C131.746 76.7473 141.862 74.6971 151.979 74.6971C158.718 74.6971 165.625 75.6046 172.128 77.3859C169.557 78.4278 166.414 80.4108 161.138 84.9145C156.752 84.444 152.315 84.4272 147.862 84.8473C142.047 85.4018 136.199 86.6958 130.486 88.7124C125.326 90.5274 121.243 92.5944 118.487 94.174C114.269 92.6616 108.824 90.8803 106.135 90.0064C106.555 90.1408 107.429 89.2838 107.715 89.0653ZM180.581 109.063L166.902 146.404L134.082 152.706L106.959 124.692C108.79 111.987 117.495 100.728 117.495 100.728C117.546 100.694 123.226 96.5939 132.334 93.4178C137.645 91.5525 143.056 90.3593 148.45 89.8552C152.853 89.4518 157.239 89.5191 161.575 90.04L180.581 109.063ZM78.6086 148.336C77.7684 153.764 77.5835 159.394 78.0204 165.057C77.3651 163.747 76.8441 162.638 76.4576 161.747C75.9534 158.235 75.7014 154.638 75.7014 150.975C75.7014 139.716 78.1381 129.011 82.5242 119.382C82.0368 124.423 82.2721 129.649 82.625 133.615C80.7428 138.337 79.3985 143.261 78.6086 148.336ZM85.2466 177.426C84.4735 174.586 83.5661 170.452 83.1123 165.494C82.6082 159.898 82.7594 154.336 83.5997 149.009C84.2383 144.925 85.2634 140.959 86.675 137.144C92.2038 132.473 99.5308 129.733 103.581 128.473L130.2 155.966L127.41 186.097L101.396 194.785C94.775 189.912 89.3638 183.459 85.2466 177.426ZM164.297 221.051C158.499 224.849 143.845 225.757 137.897 225.975C131.343 224.749 124.973 222.648 118.974 219.757C113.731 217.237 108.757 214.111 104.219 210.448C104.303 210.296 103.513 202.28 103.547 199.356L129.83 190.584L160.163 203.709L164.347 221.001C164.314 221.035 164.297 221.051 164.297 221.051ZM214.695 194.449C210.175 200.97 204.763 207.036 198.26 211.641C192.16 215.943 183.993 217.422 176.733 218.615C176.178 218.699 169.238 219.841 169.187 219.606L165.003 202.297L186.362 180.064L214.645 177.459C215.082 181.963 215.653 188.534 215.989 192.55C215.552 193.189 215.132 193.827 214.695 194.449ZM215.132 171.83C215.031 171.998 214.93 172.183 214.83 172.384L186.664 174.972L171.506 148.454L185.219 111.029L204.579 112.256C208.696 115.701 212.342 119.533 215.435 123.667C219.3 128.859 222.308 134.556 224.358 140.589C222.207 159.277 217.25 168.586 215.132 171.83ZM225.232 129.784C223.568 126.574 221.619 123.482 219.417 120.541C215.939 115.886 211.805 111.601 207.116 107.786C206.259 103.534 203.906 96.846 197.588 89.8216C197.705 89.9056 197.823 90.0064 197.941 90.0904C198.327 90.3761 198.697 90.6786 199.084 90.9643C203.436 94.3925 207.402 98.2744 210.914 102.543C217.435 110.492 222.358 119.718 225.249 129.616C225.232 129.683 225.232 129.733 225.232 129.784Z" fill="#26437E"/>
</svg>
