<svg width="9" height="9" viewBox="0 0 9 9" fill="none" xmlns="http://www.w3.org/2000/svg">
<circle cx="4.5" cy="4.5" r="4.25" fill="#D60000" stroke="white" stroke-width="0.5"/>
<path d="M2.30499 4.34853L4.17993 3.06296C4.20615 3.03296 4.23957 3.01253 4.27596 3.00425C4.31235 2.99597 4.35007 3.00021 4.38435 3.01644C4.41863 3.03267 4.44792 3.06016 4.46852 3.09543C4.48912 3.13069 4.5001 3.17215 4.50007 3.21455L4.50007 3.85734L6.37501 3.85734C6.47447 3.85734 6.56984 3.90249 6.64017 3.98285C6.71049 4.06321 6.75 4.17221 6.75 4.28586L6.75 4.71438C6.75 4.82804 6.71049 4.93703 6.64017 5.0174C6.56984 5.09776 6.47447 5.14291 6.37501 5.14291L4.50007 5.14291L4.50007 5.78569C4.5001 5.82809 4.48912 5.86955 4.46852 5.90482C4.44792 5.94008 4.41863 5.96757 4.38435 5.9838C4.35007 6.00003 4.31235 6.00428 4.27596 5.996C4.23957 5.98771 4.20615 5.96728 4.17993 5.93728L2.30499 4.65171C2.28756 4.63181 2.27373 4.60818 2.26429 4.58217C2.25486 4.55616 2.25 4.52828 2.25 4.50012C2.25 4.47196 2.25486 4.44408 2.26429 4.41807C2.27373 4.39206 2.28756 4.36843 2.30499 4.34853Z" fill="white"/>
</svg>
