<svg width="21" height="27" viewBox="0 0 21 27" fill="none" xmlns="http://www.w3.org/2000/svg">
<path d="M15.1592 26.2798C15.0053 25.7596 14.883 25.332 14.7925 24.9633C13.7513 25.3908 12.8028 25.8817 11.791 26.1871C9.95297 26.7367 8.14663 26.6146 6.40141 25.8206C6.03471 25.6668 5.9419 25.4542 6.00302 25.0561C6.36972 23.2804 6.52364 21.5387 6.06414 19.763C6.03245 19.6703 6.00302 19.5481 5.97133 19.4576C5.97133 19.426 5.91021 19.3966 5.8491 19.2744C4.93008 20.6203 3.94995 21.8757 2.63481 22.9162C1.59356 20.652 1.59356 18.3267 1.89915 15.8792C1.25629 16.0624 0.674547 16.2456 0 16.4288C0.244467 14.2867 1.04125 12.4817 2.29527 10.7693C1.89688 10.6766 1.55961 10.6155 1.16348 10.5545C1.96026 8.93261 3.06263 7.61839 4.56112 6.48514C4.31665 7.6478 4.37777 8.62724 5.38732 9.33072C5.29452 8.99368 5.20397 8.65665 5.14286 8.2902C5.11117 8.01424 5.11117 7.74054 5.14286 7.49398C5.32621 6.51454 6.03018 6.11643 6.98089 6.39239C7.16424 6.45347 7.34759 6.51454 7.59432 6.63669C7.31816 5.96262 6.85865 5.68891 6.3086 5.44236C6.3086 5.38128 6.3086 5.34962 6.27691 5.28854C7.16424 5.01258 8.02213 4.67554 8.94115 4.46292C9.73793 4.2797 10.5936 4.27969 11.422 4.18695C12.2188 4.09421 12.83 4.40184 13.3506 4.98317C13.534 5.1664 13.7173 5.34962 13.9323 5.53284C13.964 5.50117 14.0252 5.50117 14.0546 5.47176C13.9935 5.1664 13.9323 4.89043 13.8712 4.5534C13.964 4.5534 14.0546 4.5534 14.1474 4.58506C15.0958 4.86103 16.0148 5.22747 16.7799 5.86987C16.9022 5.96262 17.0855 6.08476 17.1172 6.23632C17.3006 6.84932 17.4545 7.49172 17.6378 8.07305C16.7505 7.46005 15.8315 6.81765 14.8514 6.14584C14.6974 6.60502 14.6069 6.94206 14.4847 7.3085C13.7807 6.88098 13.1673 6.48287 12.5244 6.14584C12.2799 6.02369 11.9427 5.96262 11.6665 6.02369C10.5958 6.20691 9.584 6.60502 8.66499 7.36957C8.81891 7.49172 8.97057 7.58446 9.21504 7.76768C8.54049 8.10472 7.95875 8.41009 7.50151 9.08416C8.29829 8.96201 8.38883 9.48227 8.6333 9.94146C9.03169 10.7377 9.73566 11.1358 10.623 11.1652C11.6937 11.1969 12.7666 11.1652 13.869 11.1652C13.5634 10.8282 13.1944 10.4911 12.8594 10.1247C12.4927 9.69716 12.0332 9.54335 11.4809 9.60442C10.7158 9.66549 9.98013 9.48227 9.36896 8.99142C10.2269 7.98257 11.0214 7.95091 12.7372 8.86927C13.0133 8.71546 13.2872 8.59331 13.5634 8.44176C13.5951 8.5345 13.6245 8.5639 13.6245 8.5639C13.2578 9.32846 13.2578 9.32846 13.869 9.94146C14.2357 10.3079 14.5729 10.706 14.9102 11.0725C15.3697 10.9797 15.8292 10.8576 16.2887 10.8576C16.7482 10.8259 17.2077 10.9186 17.7284 10.9503C17.0538 10.2152 16.3815 9.54334 15.707 8.83987C15.7387 8.77879 15.7998 8.71772 15.8292 8.65665C16.0737 8.81046 16.3182 8.93261 16.5943 9.08416C16.8999 9.02309 17.0832 8.41009 17.5133 8.83987C17.8189 9.14524 17.7895 9.45287 17.4816 9.84871C17.7261 10.1247 18.0023 10.369 18.2784 10.706C18.3395 10.4911 18.3712 10.4006 18.4323 10.2785H18.5252C20.7299 13.4 21.3727 16.7659 20.1164 20.5276C19.8109 20.1905 19.5347 19.9146 19.1974 19.5798C18.9824 21.0184 18.6157 22.2716 17.9117 23.4048C17.2417 24.5675 16.3227 25.5153 15.1592 26.2798ZM11.7593 13.7054C12.126 14.4089 12.495 15.0513 12.8006 15.6937C12.9545 16.0307 13.1673 16.0918 13.4751 15.9991C14.5458 15.7231 15.3742 15.0513 16.2299 14.3772C16.2616 14.3456 16.3227 14.2845 16.3227 14.2234C16.3227 13.7642 16.3838 13.305 16.291 12.8775C16.2593 12.6943 15.8632 12.6016 15.6481 12.45C15.4942 12.3573 15.372 12.2351 15.2203 12.2057C15.0053 12.1446 14.7608 12.0519 14.5458 12.113C13.5045 12.4206 12.6489 13.0336 11.7593 13.7054ZM13.6901 17.3766C13.8124 17.6526 14.0274 17.9896 14.1791 18.3561C14.3013 18.632 14.4552 18.6931 14.6997 18.5709C15.1592 18.3267 15.6187 18.1118 16.1393 17.8675L16.3227 19.3355C16.3838 19.3355 16.4449 19.3355 16.4766 19.3038C17.1806 18.7542 17.6401 18.019 17.7012 17.1617C17.7329 16.7636 17.4567 16.1823 17.1195 15.9674C16.8433 15.7842 16.2321 15.8747 15.8949 16.0601C15.1592 16.3678 14.4552 16.888 13.6901 17.3766ZM18.2513 12.1152C17.914 12.3301 17.6695 12.5133 17.3934 12.6966C17.3006 12.7576 17.21 12.8798 17.21 12.9725C16.9339 14.1669 17.6378 14.9314 18.3735 15.757C18.8647 14.531 18.7108 13.339 18.2513 12.1152Z" fill="#EDECEC"/>
<path d="M13.2917 0C13.3529 0.918368 13.414 1.71233 13.5068 2.60129C14.0274 2.01996 14.4552 1.56077 14.9147 1.07218L15.0075 1.16492C14.8242 2.05163 14.6092 2.96999 14.3941 3.88836C11.3315 3.12381 8.39336 3.46085 5.57746 4.95828C5.17907 4.07158 4.75126 3.24596 4.29175 2.23485C4.93461 2.63296 5.48692 2.9994 6.12978 3.39751C6.00754 2.54022 5.88531 1.74626 5.73139 0.857295C6.71152 1.53137 7.56941 2.1127 8.48617 2.7551C8.79175 1.83674 9.0996 0.979442 9.43461 0.00226213C9.98466 0.859556 10.4759 1.62411 10.9965 2.4814C11.791 1.65125 12.495 0.8867 13.2917 0Z" fill="#EDECEC"/>
</svg>
