<svg width="46" height="51" viewBox="0 0 46 51" fill="none" xmlns="http://www.w3.org/2000/svg">
<path d="M0.50101 12.1357L17.5838 0.565564C17.8227 0.295572 18.1272 0.111671 18.4588 0.0371392C18.7903 -0.0373925 19.134 0.000799726 19.4463 0.146877C19.7586 0.292955 20.0255 0.540349 20.2132 0.857744C20.4009 1.17514 20.5009 1.54826 20.5007 1.92988L20.5007 7.71494L37.5834 7.71494C38.4896 7.71494 39.3586 8.12127 39.9993 8.84454C40.64 9.56782 41 10.5488 41 11.5716L41 15.4284C41 16.4512 40.64 17.4322 39.9993 18.1555C39.3586 18.8787 38.4896 19.2851 37.5834 19.2851L20.5007 19.2851L20.5007 25.0701C20.5009 25.4517 20.4009 25.8249 20.2132 26.1423C20.0255 26.4597 19.7586 26.707 19.4463 26.8531C19.134 26.9992 18.7903 27.0374 18.4588 26.9629C18.1272 26.8883 17.8227 26.7044 17.5838 26.4344L0.501009 14.8643C0.34218 14.6852 0.216178 14.4725 0.130211 14.2384C0.0442428 14.0043 -3.24862e-06 13.7534 -3.22646e-06 13.5C-3.20431e-06 13.2466 0.0442429 12.9957 0.130211 12.7616C0.216179 12.5275 0.34218 12.3148 0.50101 12.1357Z" fill="#ED1C24"/>
<path d="M45.499 38.8643L28.4162 50.4344C28.1773 50.7044 27.8728 50.8883 27.5412 50.9629C27.2097 51.0374 26.866 50.9992 26.5537 50.8531C26.2414 50.707 25.9745 50.4596 25.7868 50.1423C25.5991 49.8249 25.4991 49.4517 25.4993 49.0701V43.2851H8.41656C7.51043 43.2851 6.64141 42.8787 6.00069 42.1555C5.35996 41.4322 5 40.4512 5 39.4284V35.5716C5 34.5488 5.35996 33.5678 6.00069 32.8445C6.64141 32.1213 7.51043 31.7149 8.41656 31.7149L25.4993 31.7149V25.9299C25.4991 25.5483 25.5991 25.1751 25.7868 24.8577C25.9745 24.5403 26.2414 24.293 26.5537 24.1469C26.866 24.0008 27.2097 23.9626 27.5412 24.0371C27.8728 24.1117 28.1773 24.2956 28.4162 24.5656L45.499 36.1357C45.6578 36.3148 45.7838 36.5275 45.8698 36.7616C45.9558 36.9957 46 37.2466 46 37.5C46 37.7534 45.9558 38.0043 45.8698 38.2384C45.7838 38.4725 45.6578 38.6852 45.499 38.8643Z" fill="#3CB83A"/>
</svg>
